<svg fill="none" height="256" viewBox="0 0 256 256" width="256" xmlns="http://www.w3.org/2000/svg" xmlns:xlink="http://www.w3.org/1999/xlink"><filter id="a" color-interpolation-filters="sRGB" filterUnits="userSpaceOnUse" height="268.413" width="219.092" x="18.8397" y="18.3207"><feFlood flood-opacity="0" result="BackgroundImageFix"/><feColorMatrix in="SourceAlpha" result="hardAlpha" type="matrix" values="0 0 0 0 0 0 0 0 0 0 0 0 0 0 0 0 0 0 127 0"/><feOffset dy="4"/><feGaussianBlur stdDeviation="2"/><feComposite in2="hardAlpha" operator="out"/><feColorMatrix type="matrix" values="0 0 0 0 0 0 0 0 0 0 0 0 0 0 0 0 0 0 0.25 0"/><feBlend in2="BackgroundImageFix" mode="normal" result="effect1_dropShadow_1_5"/><feBlend in="SourceGraphic" in2="effect1_dropShadow_1_5" mode="normal" result="shape"/></filter><linearGradient id="b" gradientUnits="userSpaceOnUse" x1="0" x2="256" y1="128" y2="128"><stop offset="0" stop-color="#533582"/><stop offset="1" stop-color="#7f54b3"/></linearGradient><clipPath id="c"><path d="m0 0h256v256h-256z"/></clipPath><g clip-path="url(#c)"><path d="m0 0h256v256h-256z" fill="url(#b)"/><g filter="url(#a)"><rect fill="#fff" height="260.413" rx="20" width="211.092" x="22.8397" y="18.3207"/></g><path d="m22.8397 150.664h211.262v105.41h-211.262z" fill="#3c2861"/><g fill="#fff"><path d="m105.464 214.456c-1.612 1.579-2.41 3.591-2.41 6.022 0 2.616.798 4.737 2.394 6.347s3.678 2.415 6.26 2.415c.861-.015 1.706-.155 2.52-.387v-3.87c-.72.217-1.456.341-2.206.371-1.284 0-2.301-.418-3.068-1.269s-1.158-2.013-1.158-3.468c0-1.362.375-2.477 1.142-3.359.705-.852 1.769-1.332 2.88-1.316.814 0 1.627.124 2.41.341v-3.886c-.861-.217-1.753-.325-2.645-.31-2.457 0-4.507.79-6.119 2.369zm16.777-2.369c-2.238 0-3.975.728-5.227 2.198-1.252 1.471-1.878 3.515-1.863 6.147 0 2.848.627 5.031 1.863 6.533 1.236 1.501 3.052 2.26 5.415 2.26 2.285 0 4.054-.759 5.29-2.26 1.236-1.518 1.863-3.623 1.863-6.348 0-2.724-.627-4.83-1.894-6.301-1.236-1.486-3.052-2.229-5.447-2.229zm1.925 12.432c-.407.65-1.142 1.037-1.909 1.006-.736.015-1.424-.372-1.769-1.006-.406-.666-.61-2.013-.61-4.041 0-3.143.798-4.722 2.411-4.722 1.705 0 2.566 1.595 2.566 4.768-.016 1.997-.251 3.313-.689 3.995zm17.389-11.967-.861 3.653c-.219.945-.438 1.904-.626 2.88l-.485 2.539c-.47-2.524-1.096-5.558-1.894-9.057h-5.619l-2.113 16.286h4.21l1.142-11.224 2.88 11.224h3.005l2.739-11.224 1.19 11.193h4.397l-2.237-16.27zm20.158 0-.861 3.653c-.219.945-.438 1.904-.626 2.88l-.485 2.539c-.47-2.524-1.096-5.558-1.894-9.057h-5.619l-2.112 16.271h4.209l1.143-11.224 2.879 11.224h3.005l2.755-11.209 1.189 11.193h4.398l-2.238-16.27zm13.662 9.83h3.96v-3.39h-3.96v-2.988h4.555v-3.452h-8.999v16.286h9.03v-3.484h-4.586zm17.107-2.57c1.252-1.966.751-4.551-1.127-5.929-1.205-.882-2.864-1.331-4.961-1.331h-5.18v16.286h4.444v-7.431h.078l3.6 7.415h4.695l-3.553-7.338c.83-.34 1.534-.929 2.004-1.672zm-6.824-.263v-3.87c1.049.031 1.816.201 2.27.526.453.325.688.867.688 1.61 0 1.13-.986 1.703-2.958 1.734zm10.158-5.093c-1.613 1.579-2.426 3.591-2.426 6.022 0 2.616.798 4.737 2.394 6.332 1.597 1.61 3.694 2.415 6.26 2.415.861-.016 1.707-.14 2.536-.372v-3.87c-.72.217-1.456.341-2.207.371-1.283 0-2.301-.418-3.083-1.269-.767-.851-1.159-2.013-1.159-3.468 0-1.362.377-2.477 1.143-3.359.705-.852 1.769-1.332 2.88-1.316.814 0 1.628.124 2.41.341v-3.886c-.86-.217-1.753-.325-2.645-.31-2.457 0-4.491.79-6.103 2.369zm14.429 10.883v-2.957h3.96v-3.39h-3.96v-2.988h4.555v-3.452h-9v16.286h9.031v-3.484h-4.586z"/><path clip-rule="evenodd" d="m93.8508 205.972h-48.1572c-3.0519 0-5.5247 2.446-5.5247 5.449v18.175c0 3.004 2.4728 5.45 5.5091 5.45h22.8187l10.4391 5.743-2.3633-5.743h17.2783c3.0362 0 5.5089-2.446 5.5089-5.45v-18.175c0-3.003-2.4727-5.449-5.5089-5.449zm-49.1745 4.195c-.5947.016-1.1425.295-1.5181.744-.36.464-.5008 1.052-.3756 1.641 1.4242 8.979 2.7545 15.032 3.9909 18.159.4539 1.146 1.0173 1.687 1.6747 1.641 1.0016-.077 2.2223-1.455 3.6466-4.164.3167-.627.7028-1.388 1.1562-2.282l.0002-.001.0024-.004c.6439-1.27 1.423-2.806 2.3313-4.603 1.3147 4.505 3.0988 7.896 5.3525 10.172.6417.634 1.2678.928 1.9094.882.5478-.031 1.0486-.372 1.2834-.867.2347-.48.3443-1.022.2817-1.564-.1565-2.182.0782-5.232.673-9.118.6103-4.025 1.3929-6.905 2.3319-8.638.1878-.341.2661-.744.2348-1.146-.0313-.542-.2974-1.053-.7356-1.378-.4225-.356-.9703-.526-1.5181-.48-.6887.031-1.299.434-1.5963 1.053-1.4869 2.709-2.5512 7.106-3.1928 13.174-1.0173-2.647-1.7842-5.387-2.285-8.174-.2661-1.424-.9234-2.09-1.9877-2.012-.7356.046-1.3303.526-1.8154 1.424l-5.3057 9.97c-.8608-3.483-1.6746-7.725-2.4258-12.71-.1879-1.223-.8921-1.796-2.1129-1.719zm35.3082 4.505c-.8138-1.439-2.2224-2.461-3.8657-2.771-.4383-.093-.8765-.139-1.3147-.139-2.3163 0-4.21 1.192-5.6812 3.576-1.2521 2.028-1.9094 4.366-1.8781 6.734 0 1.843.3913 3.422 1.1582 4.738.8138 1.439 2.2224 2.461 3.8657 2.771.4382.093.8764.139 1.3147.139 2.3319 0 4.2257-1.192 5.6812-3.576 1.252-2.044 1.9093-4.381 1.8781-6.781 0-1.842-.3913-3.406-1.1582-4.691zm-3.0519 6.642c-.3286 1.563-.939 2.74-1.8468 3.545-.7042.635-1.3616.883-1.9563.774-.5947-.108-1.0643-.635-1.4242-1.548-.2661-.697-.4226-1.424-.4226-2.183 0-.588.0626-1.176.1721-1.749.2348-1.022.6574-1.982 1.2834-2.849.7982-1.161 1.6434-1.656 2.5198-1.47.5947.123 1.0642.634 1.4242 1.548.266.696.4226 1.424.4226 2.167 0 .588-.047 1.177-.1722 1.765zm14.3359-9.413c1.6435.31 3.052 1.332 3.8655 2.771.7673 1.285 1.1585 2.849 1.1585 4.691.031 2.4-.6261 4.737-1.8783 6.781-1.4554 2.384-3.3489 3.576-5.6811 3.576-.4381 0-.8762-.046-1.3149-.139-1.6428-.31-3.0516-1.332-3.8655-2.771-.7668-1.316-1.1581-2.895-1.1581-4.738-.0313-2.368.6261-4.706 1.8781-6.734 1.4711-2.384 3.3652-3.576 5.6809-3.576.4388 0 .8768.046 1.3149.139zm-1.0331 12.958c.9078-.805 1.518-1.982 1.8472-3.545.1248-.588.1722-1.177.1722-1.765 0-.743-.157-1.471-.4229-2.167-.3602-.914-.8293-1.425-1.4243-1.548-.8762-.186-1.7213.309-2.5196 1.47-.6261.867-1.0484 1.827-1.2833 2.849-.1095.573-.1722 1.161-.1722 1.749 0 .759.1564 1.486.4223 2.183.3602.913.8299 1.44 1.4244 1.548.5951.109 1.2522-.139 1.9562-.774z" fill-rule="evenodd"/><path d="m121.664 179.555-.377 2.273h-6.733l.377-2.273zm-7.017 10.909 1.953-11.697c.128-.791.388-1.447.781-1.968.398-.521.888-.911 1.47-1.172.587-.26 1.222-.39 1.904-.39.464 0 .883.035 1.257.106.379.071.653.135.824.192l-.902 2.273c-.114-.038-.254-.074-.419-.107-.166-.033-.341-.05-.526-.05-.44 0-.765.105-.973.313-.203.204-.341.49-.412.859l-1.939 11.641zm11.592.213c-1.112 0-2.033-.237-2.762-.71-.729-.478-1.243-1.141-1.541-1.989-.294-.852-.348-1.844-.164-2.976.18-1.117.554-2.095 1.122-2.933.569-.838 1.291-1.489 2.167-1.953.875-.469 1.863-.703 2.961-.703 1.108 0 2.027.239 2.756.717.729.474 1.243 1.137 1.541 1.989s.355 1.844.17 2.976c-.184 1.112-.563 2.088-1.136 2.926s-1.295 1.491-2.166 1.96c-.871.464-1.854.696-2.948.696zm.299-2.344c.511 0 .963-.144 1.356-.433.398-.293.727-.691.988-1.193.265-.507.449-1.08.554-1.719.104-.63.111-1.188.021-1.676-.09-.492-.28-.881-.568-1.165-.284-.284-.675-.426-1.172-.426-.512 0-.966.147-1.364.44-.398.289-.727.687-.987 1.194-.261.506-.443 1.082-.547 1.725-.099.625-.106 1.184-.021 1.677.085.487.272.873.561 1.157.289.28.682.419 1.179.419zm7.024 2.131 1.818-10.909h2.933l-.319 1.903h.113c.313-.677.732-1.188 1.257-1.534.531-.35 1.101-.525 1.712-.525.152 0 .31.009.476.028.17.014.322.038.455.071l-.455 2.692c-.133-.048-.322-.085-.568-.114-.242-.033-.471-.05-.689-.05-.44 0-.85.098-1.229.292-.379.189-.698.454-.959.795-.255.341-.423.734-.504 1.179l-1.015 6.172z"/></g><path d="m68.9577 78.4271v-32.7272h6.9194v13.5031h14.0465v-13.5031h6.9034v32.7272h-6.9034v-13.5192h-14.0465v13.5192zm31.3243 0v-32.7272h12.912c2.482 0 4.597.474 6.344 1.4222 1.747.9375 3.079 2.2425 3.995 3.9151.927 1.6619 1.39 3.5796 1.39 5.7528 0 2.1733-.468 4.091-1.406 5.7529-.937 1.6619-2.296 2.9563-4.075 3.8832-1.768.9268-3.91 1.3902-6.424 1.3902h-8.23v-5.5451h7.111c1.332 0 2.429-.229 3.292-.6871.874-.4688 1.524-1.1133 1.95-1.9336.437-.831.655-1.7845.655-2.8605 0-1.0866-.218-2.0348-.655-2.8444-.426-.8203-1.076-1.4542-1.95-1.9016-.873-.4581-1.981-.6872-3.323-.6872h-4.667v27.0703zm56.96-16.3636c0 3.5689-.676 6.6051-2.029 9.1087-1.343 2.5035-3.175 4.4158-5.497 5.7368-2.312 1.3104-4.912 1.9656-7.799 1.9656-2.908 0-5.518-.6605-7.83-1.9816-2.312-1.321-4.139-3.2333-5.481-5.7368-1.342-2.5036-2.014-5.5345-2.014-9.0927 0-3.5689.672-6.6051 2.014-9.1087 1.342-2.5035 3.169-4.4105 5.481-5.7209 2.312-1.321 4.922-1.9815 7.83-1.9815 2.887 0 5.487.6605 7.799 1.9815 2.322 1.3104 4.154 3.2174 5.497 5.7209 1.353 2.5036 2.029 5.5398 2.029 9.1087zm-7.015 0c0-2.3118-.346-4.2614-1.039-5.8487-.682-1.5874-1.646-2.7912-2.892-3.6115-1.247-.8204-2.706-1.2305-4.379-1.2305-1.672 0-3.132.4101-4.378 1.2305-1.247.8203-2.216 2.0241-2.909 3.6115-.681 1.5873-1.022 3.5369-1.022 5.8487s.341 4.2614 1.022 5.8487c.693 1.5874 1.662 2.7912 2.909 3.6115 1.246.8203 2.706 1.2305 4.378 1.2305 1.673 0 3.132-.4102 4.379-1.2305 1.246-.8203 2.21-2.0241 2.892-3.6115.693-1.5873 1.039-3.5369 1.039-5.8487zm27.645-6.9514c-.128-1.289-.677-2.2904-1.646-3.0042-.97-.7138-2.285-1.0707-3.947-1.0707-1.13 0-2.083.1598-2.861.4794-.777.309-1.374.7404-1.789 1.2944-.405.554-.608 1.1825-.608 1.8857-.021.5859.101 1.0973.368 1.534.277.4368.655.815 1.134 1.1346.48.309 1.034.5806 1.662.815.629.2237 1.3.4155 2.014.5753l2.94.7031c1.428.3196 2.738.7458 3.931 1.2784 1.193.5327 2.227 1.1879 3.1 1.9656.874.7777 1.551 1.6939 2.03 2.7486.49 1.0547.74 2.2638.751 3.6275-.011 2.0028-.522 3.7393-1.534 5.2095-1.002 1.4595-2.45 2.5941-4.347 3.4037-1.885.799-4.16 1.1985-6.823 1.1985-2.642 0-4.943-.4048-6.904-1.2144-1.949-.8097-3.473-2.0082-4.57-3.5956-1.087-1.598-1.657-3.5742-1.71-5.9286h6.696c.074 1.0973.389 2.0135.943 2.7486.564.7244 1.315 1.2731 2.253 1.6459.948.3623 2.019.5434 3.212.5434 1.172 0 2.189-.1705 3.052-.5114.874-.3409 1.55-.815 2.03-1.4222.479-.6073.719-1.3051.719-2.0934 0-.7351-.219-1.353-.656-1.8537-.426-.5007-1.054-.9269-1.885-1.2784-.82-.3516-1.827-.6712-3.02-.9588l-3.564-.8949c-2.759-.6712-4.938-1.7205-6.536-3.1481s-2.392-3.3505-2.381-5.7688c-.011-1.9816.517-3.7127 1.582-5.1936 1.076-1.4808 2.552-2.6367 4.427-3.4676 1.875-.831 4.005-1.2465 6.392-1.2465 2.429 0 4.549.4155 6.36 1.2465 1.822.8309 3.238 1.9868 4.25 3.4676 1.013 1.4809 1.535 3.1961 1.567 5.1456zm-114.0031 53.9999c-.1279-1.289-.6765-2.29-1.646-3.004s-2.2851-1.071-3.9471-1.071c-1.1292 0-2.0827.16-2.8604.48-.7777.309-1.3743.74-1.7898 1.294-.4048.554-.6072 1.183-.6072 1.886-.0213.586.1012 1.097.3675 1.534.277.437.6552.815 1.1346 1.134.4794.309 1.0334.581 1.6619.815.6286.224 1.2997.416 2.0135.576l2.9404.703c1.4275.319 2.7379.745 3.9311 1.278s2.2265 1.188 3.1001 1.966c.8736.777 1.5501 1.694 2.0295 2.748.49 1.055.7404 2.264.751 3.628-.0106 2.003-.522 3.739-1.534 5.209-1.0015 1.46-2.4503 2.594-4.3466 3.404-1.8857.799-4.1602 1.199-6.8235 1.199-2.6421 0-4.9432-.405-6.9034-1.215-1.9496-.81-3.4731-2.008-4.5704-3.595-1.0866-1.598-1.6566-3.575-1.7098-5.929h6.6956c.0746 1.097.3889 2.013.9429 2.748.5646.725 1.3157 1.274 2.2532 1.646.9481.363 2.0188.544 3.212.544 1.1718 0 2.1892-.171 3.0522-.512.8735-.341 1.55-.815 2.0294-1.422s.7191-1.305.7191-2.093c0-.735-.2184-1.353-.6551-1.854-.4262-.501-1.0547-.927-1.8857-1.278-.8203-.352-1.8271-.671-3.0202-.959l-3.5636-.895c-2.7592-.671-4.9379-1.721-6.5359-3.148-1.598-1.428-2.3917-3.351-2.381-5.769-.0107-1.981.5167-3.713 1.582-5.193 1.076-1.481 2.5515-2.637 4.4265-3.468 1.875-.8311 4.0057-1.2466 6.3921-1.2466 2.4289 0 4.549.4155 6.36 1.2466 1.8218.831 3.2387 1.987 4.2508 3.468 1.012 1.48 1.534 3.196 1.566 5.145zm8.2369-3.707v-5.7051h26.8786v5.7051h-10.0196v27.022h-6.8395v-27.022zm30.6972 27.022h-7.415l11.298-32.7271h8.917l11.282 32.7271h-7.415l-8.198-25.248h-.255zm-.464-12.864h17.515v5.401h-17.515zm20.989-14.158v-5.7051h26.879v5.7051h-10.02v27.022h-6.839v-27.022zm49.27-5.7051h6.92v21.2531c0 2.387-.57 4.475-1.71 6.265-1.129 1.789-2.711 3.185-4.746 4.186-2.035.991-4.405 1.487-7.111 1.487-2.717 0-5.093-.496-7.128-1.487-2.034-1.001-3.616-2.397-4.746-4.186-1.129-1.79-1.693-3.878-1.693-6.265v-21.2531h6.919v20.6621c0 1.247.272 2.355.815 3.324.554.969 1.332 1.731 2.333 2.285s2.168.831 3.5.831c1.342 0 2.509-.277 3.499-.831 1.002-.554 1.774-1.316 2.317-2.285.554-.969.831-2.077.831-3.324zm28.117 9.4121c-.128-1.289-.677-2.29-1.646-3.004-.97-.714-2.286-1.071-3.947-1.071-1.13 0-2.083.16-2.861.48-.778.309-1.374.74-1.79 1.294-.405.554-.607 1.183-.607 1.886-.021.586.101 1.097.368 1.534.277.437.655.815 1.134 1.134.48.309 1.034.581 1.662.815.629.224 1.3.416 2.014.576l2.94.703c1.428.319 2.738.745 3.931 1.278s2.227 1.188 3.1 1.966c.874.777 1.55 1.694 2.03 2.748.49 1.055.74 2.264.751 3.628-.011 2.003-.522 3.739-1.534 5.209-1.002 1.46-2.451 2.594-4.347 3.404-1.886.799-4.16 1.199-6.823 1.199-2.642 0-4.944-.405-6.904-1.215-1.949-.81-3.473-2.008-4.57-3.595-1.087-1.598-1.657-3.575-1.71-5.929h6.696c.074 1.097.388 2.013.942 2.748.565.725 1.316 1.274 2.254 1.646.948.363 2.018.544 3.212.544 1.172 0 2.189-.171 3.052-.512.873-.341 1.55-.815 2.029-1.422.48-.607.719-1.305.719-2.093 0-.735-.218-1.353-.655-1.854-.426-.501-1.054-.927-1.885-1.278-.821-.352-1.827-.671-3.021-.959l-3.563-.895c-2.759-.671-4.938-1.721-6.536-3.148-1.598-1.428-2.392-3.351-2.381-5.769-.011-1.981.517-3.713 1.582-5.193 1.076-1.481 2.551-2.637 4.426-3.468 1.875-.8311 4.006-1.2466 6.392-1.2466 2.429 0 4.549.4155 6.361 1.2466 1.821.831 3.238 1.987 4.25 3.468 1.012 1.48 1.534 3.196 1.566 5.145z" fill="#000"/></g></svg>